<svg xmlns="http://www.w3.org/2000/svg" version="1.1" xmlns:xlink="http://www.w3.org/1999/xlink" xmlns:svgjs="http://svgjs.dev/svgjs" width="1500" height="939" viewBox="0 0 1500 939"><g transform="matrix(1,0,0,1,-0.9090909090909918,-1.5145161290323017)"><svg viewBox="0 0 396 248" data-background-color="#ebe3d6" preserveAspectRatio="xMidYMid meet" height="939" width="1500" xmlns="http://www.w3.org/2000/svg" xmlns:xlink="http://www.w3.org/1999/xlink"><g id="tight-bounds" transform="matrix(1,0,0,1,0.2400000000000091,0.4000000000000057)"><svg viewBox="0 0 395.52 247.2" height="247.2" width="395.52"><g><svg></svg></g><g><svg viewBox="0 0 395.52 247.2" height="247.2" width="395.52"><g transform="matrix(1,0,0,1,75.54432,74.89652923076923)"><svg viewBox="0 0 244.43135999999998 97.40694153846152" height="97.40694153846152" width="244.43135999999998"><g><svg viewBox="0 0 244.43135999999998 97.40694153846152" height="97.40694153846152" width="244.43135999999998"><g><svg viewBox="0 0 244.43135999999998 97.40694153846152" height="97.40694153846152" width="244.43135999999998"><g><svg viewBox="0 0 244.43135999999998 97.40694153846152" height="97.40694153846152" width="244.43135999999998"><g id="textblocktransform"><svg viewBox="0 0 244.43135999999998 97.40694153846152" height="97.40694153846152" width="244.43135999999998" id="textblock"><g><svg viewBox="0 0 244.43135999999998 97.40694153846152" height="97.40694153846152" width="244.43135999999998"><g transform="matrix(1,0,0,1,0,0)"><svg width="244.43135999999998" viewBox="1.46 -35.69 91.4 36.419999999999995" height="97.40694153846152" data-palette-color="#505050"><path d="M6.15-8.89L6.15-8.89 6.4-4.64Q6.4-0.73 4.54 0.1L4.54 0.1Q4.15 0.24 3.61 0.24 3.08 0.24 2.34 0L2.34 0 2.39-18.26Q2.39-22.22 1.93-26.2 1.46-30.18 1.46-34.13L1.46-34.13Q1.46-35.69 3.13-35.69L3.13-35.69 3.52-35.69Q3.86-35.69 3.96-35.64L3.96-35.64Q4.69-32.62 4.93-28.32L4.93-28.32Q5.47-18.8 5.91-15.53L5.91-15.53Q6.74-15.97 9.62-18.02 12.5-20.07 14.26-21.31 16.02-22.56 17.58-23.63L17.58-23.63Q21.24-26.03 22.17-26.03L22.17-26.03Q22.95-26.03 23.39-25.1L23.39-25.1Q20.95-22.02 15.53-18.26L15.53-18.26Q13.33-16.75 11.16-15.26 8.98-13.77 7.18-12.16L7.18-12.16Q10.45-11.28 13.38-10.33 16.31-9.38 19.04-8.59L19.04-8.59Q25.34-6.74 29.88-6.49L29.88-6.49Q29.88-5.18 29.64-4.79L29.64-4.79Q29.2-4.1 27.83-4L27.83-4 27.44-4Q24.46-4.83 19.53-5.86L19.53-5.86Q9.81-7.86 6.15-8.89ZM33.35-22.95L36.42-22.95Q37.06-13.82 37.5-1.81L37.5-1.81Q37.2-0.29 35.15-0.29L35.15-0.29Q34.62-0.29 34.06-0.51 33.49-0.73 33.35-1.12L33.35-1.12 33.35-22.95ZM31.88-29.59L31.88-29.59Q31.88-31.3 33.88-31.3L33.88-31.3Q35.2-31.3 36.03-30.71L36.03-30.71Q36.18-30.18 36.18-29.66 36.18-29.15 35.79-28.66L35.79-28.66Q35.4-28.17 34.62-28.17 33.84-28.17 33.05-28.54 32.27-28.91 31.88-29.59ZM63.57-17.82L63.57-17.82Q61.52-19.29 58.3-19.29L58.3-19.29Q55.27-19.29 52.68-18.16L52.68-18.16Q47.8-16.11 45.99-12.89L45.99-12.89Q45.21-11.43 45.21-9.77L45.21-9.77Q45.21-9.47 45.21-8.13 45.21-6.79 45.7-4.52 46.19-2.25 46.19 0.1L46.19 0.1Q45.16 0.15 44.53 0.34 43.89 0.54 43.45 0.54 43.01 0.54 42.7 0.15 42.38-0.24 41.99-1.37L41.99-1.37Q41.94-1.66 41.79-3.03 41.65-4.39 41.43-6.35 41.21-8.3 40.94-10.62 40.67-12.94 40.42-15.19L40.42-15.19Q39.89-20.07 39.59-22.36L39.59-22.36Q39.59-23.54 41.3-23.54L41.3-23.54Q42.33-23.54 42.91-22.68 43.5-21.83 43.84-20.73 44.18-19.63 44.31-18.55 44.43-17.48 44.53-17.04L44.53-17.04Q50.97-22.8 60.54-22.8L60.54-22.8Q61.62-22.8 62.79-22.75L62.79-22.75Q63.08-22.8 63.52-22.8 63.96-22.8 64.4-22.22L64.4-22.22Q64.94-21.53 64.94-20.56L64.94-20.56Q64.94-18.12 63.57-17.82ZM74.55-4.69L74.55-4.69 74.65-12.5Q74.65-14.36 74.31-15.67L74.31-15.67 66.74-15.67 66.64-19.04 73.97-19.04 73.97-31.64Q74.11-32.08 74.55-32.52L74.55-32.52Q75.24-33.2 75.7-33.2 76.16-33.2 76.51-33.11 76.85-33.01 77.24-32.42L77.24-32.42Q78.02-29.2 78.02-22.71L78.02-22.71Q78.02-21.09 78.17-19.53L78.17-19.53Q79.73-19.73 81.29-19.73L81.29-19.73Q81.29-19.73 83.83-19.73L83.83-19.73Q84.76-19.73 85.54-19.82L85.54-19.82 85.39-16.31 78.26-16.5 78.51 0.34Q77.63 0.73 76.99 0.73L76.99 0.73Q74.55 0.73 74.55-4.69ZM88.71-22.95L91.79-22.95Q92.42-13.82 92.86-1.81L92.86-1.81Q92.57-0.29 90.52-0.29L90.52-0.29Q89.98-0.29 89.42-0.51 88.86-0.73 88.71-1.12L88.71-1.12 88.71-22.95ZM87.25-29.59L87.25-29.59Q87.25-31.3 89.25-31.3L89.25-31.3Q90.57-31.3 91.4-30.71L91.4-30.71Q91.54-30.18 91.54-29.66 91.54-29.15 91.15-28.66L91.15-28.66Q90.76-28.17 89.98-28.17 89.2-28.17 88.42-28.54 87.64-28.91 87.25-29.59Z" opacity="1" transform="matrix(1,0,0,1,0,0)" fill="#505050" class="wordmark-text-0" data-fill-palette-color="primary" id="text-0"></path></svg></g></svg></g></svg></g></svg></g></svg></g></svg></g></svg></g><path d="M224.618 68.897L224.618 16.921 11.26 16.921 11.26 230.279 224.618 230.279 224.618 178.303 215.834 178.303 215.834 221.495 20.044 221.495 20.044 25.705 215.834 25.705 215.834 68.897Z" fill="#505050" stroke="transparent" data-fill-palette-color="tertiary"></path></svg></g><defs></defs></svg><rect width="395.52" height="247.2" fill="none" stroke="none" visibility="hidden"></rect></g></svg></g></svg>